<?xml version="1.0" encoding="UTF-8"?>
<svg version="1.1" xmlns="http://www.w3.org/2000/svg" width="256" height="256">
<path d="M0 0 C0.82371094 0.60328125 1.64742187 1.2065625 2.49609375 1.828125 C23.32701024 17.81690957 36.43990251 38.82197399 43 64 C43.36931641 65.39992187 43.36931641 65.39992187 43.74609375 66.828125 C49.36435948 93.33084057 43.55723543 122.1591782 29.5 145.0625 C28.36090204 146.72753283 27.19473168 148.37442481 26 150 C25.39671875 150.82371094 24.7934375 151.64742187 24.171875 152.49609375 C8.18640923 173.32268635 -12.82290819 186.4470583 -38 193 C-39.41732422 193.36931641 -39.41732422 193.36931641 -40.86328125 193.74609375 C-68.36673586 199.51744096 -97.72066366 192.93391579 -121.23095703 178.16455078 C-125.8232116 175.14149609 -129.95300362 171.7102569 -134 168 C-134.92425781 167.15695313 -135.84851563 166.31390625 -136.80078125 165.4453125 C-152.18225114 150.7659014 -161.68529308 132.39814639 -167 112 C-167.24621094 111.06671875 -167.49242187 110.1334375 -167.74609375 109.171875 C-173.6342111 81.3962042 -166.78859181 51.96041801 -151.71484375 28.32421875 C-136.09053103 4.9569978 -112.98368473 -9.96944079 -86 -17 C-85.06671875 -17.24621094 -84.1334375 -17.49242188 -83.171875 -17.74609375 C-54.99968922 -23.71826764 -23.16279891 -17.02371562 0 0 Z M-82.6875 21.9375 C-83.7542395 22.29666504 -83.7542395 22.29666504 -84.8425293 22.66308594 C-90.73802467 24.73337233 -95.92892441 27.32263061 -101 31 C-102.35351562 31.97066406 -102.35351562 31.97066406 -103.734375 32.9609375 C-119.29160434 44.86522625 -128.25069379 61.77918666 -131 81 C-132.24645258 100.36795546 -127.03390204 116.89769266 -115 132 C-114.51789063 132.64710938 -114.03578125 133.29421875 -113.5390625 133.9609375 C-103.38901139 146.92718777 -87.24085155 153.55182969 -71.5625 156.6875 C-50.20418348 158.56103654 -32.16226352 152.46381243 -15.375 139.3125 C-7.23927965 131.95718448 1.18559935 120.66376309 3.46875 109.76171875 C3.6471842 107.69633264 3.6471842 107.69633264 3 105 C-0.39210252 102.73859832 -1.36022743 102.7959468 -5.3046875 102.9453125 C-6.35696533 102.97294678 -7.40924316 103.00058105 -8.4934082 103.02905273 C-10.16729614 103.07654663 -10.16729614 103.07654663 -11.875 103.125 C-28.46684082 103.33329533 -42.66157578 99.4820972 -55.28125 87.9140625 C-61.81386107 80.63910926 -67.11473684 72.37312009 -70 63 C-70.22300781 62.34515625 -70.44601563 61.6903125 -70.67578125 61.015625 C-72.18127772 55.73102516 -72.20346454 50.39322812 -72.25 44.9375 C-72.26401855 43.80344727 -72.26401855 43.80344727 -72.27832031 42.64648438 C-72.2489278 37.45079275 -71.39916374 33.00241555 -70 28 C-69.41231617 25.28528995 -69.41231617 25.28528995 -70 23 C-74.38010598 19.23845861 -77.62794557 20.15198581 -82.6875 21.9375 Z " fill="#000000" transform="translate(190,40)"/>
<path d="M0 0 C-0.03480469 1.28132813 -0.06960937 2.56265625 -0.10546875 3.8828125 C-0.52603098 25.89721706 4.14137813 44.88158071 19.3125 61.5390625 C34.69645951 76.26515532 52.42486282 80.4548316 73 82 C67.96727308 95.99343583 55.36778316 105.13463048 42.4375 111.25 C27.67223701 117.38090505 10.77935589 116.54479086 -3.9765625 110.8515625 C-18.63042348 104.30087012 -29.91968097 91.74800786 -36 77 C-41.73155675 61.31846074 -40.23070456 43.88137553 -33.375 28.875 C-30.1180881 22.70782771 -25.94501289 17.87715679 -21 13 C-20.36191406 12.35160156 -19.72382812 11.70320313 -19.06640625 11.03515625 C-14.62408385 6.81448819 -6.37377891 0 0 0 Z " fill="#000000" transform="translate(108,72)"/>
</svg>
